HIERARCHY
ROOT Hips
{
	OFFSET 0.000000 0.000000 0.000000
	CHANNELS 6 Xposition Yposition Zposition Xrotation Yrotation Zrotation
	JOINT LeftUpLeg_virtual
	{
		OFFSET 0.000000 0.000000 0.000000
		CHANNELS 3 Xrotation Yrotation Zrotation
		JOINT LeftUpLeg
		{
			OFFSET 11.394100 -6.187798 -0.413800
			CHANNELS 3 Xrotation Yrotation Zrotation
			JOINT LeftLeg
			{
				OFFSET 0.430247 -32.302673 3.732800
				CHANNELS 3 Xrotation Yrotation Zrotation
				JOINT LeftFoot
				{
					OFFSET -0.430247 -48.264931 -6.423300
					CHANNELS 3 Xrotation Yrotation Zrotation
					JOINT LeftToeBase
					{
						OFFSET 4.230900 -16.068199 23.438400
						CHANNELS 3 Xrotation Yrotation Zrotation
						JOINT LeftToe_End
						{
							OFFSET 4.510700 0.695400 19.974600
							CHANNELS 3 Xrotation Yrotation Zrotation
							End Site
							{
								OFFSET 0 0 0
							}
						}
					}
				}
			}
		}
	}
	JOINT RightUpLeg_virtual
	{
		OFFSET 0.000000 0.000000 0.000000
		CHANNELS 3 Xrotation Yrotation Zrotation
		JOINT RightUpLeg
		{
			OFFSET -11.333700 -6.187798 -0.413800
			CHANNELS 3 Xrotation Yrotation Zrotation
			JOINT RightLeg
			{
				OFFSET -0.430392 -32.302628 3.733000
				CHANNELS 3 Xrotation Yrotation Zrotation
				JOINT RightFoot
				{
					OFFSET 0.430392 -48.264973 -6.423500
					CHANNELS 3 Xrotation Yrotation Zrotation
					JOINT RightToeBase
					{
						OFFSET -4.230900 -16.068199 23.438400
						CHANNELS 3 Xrotation Yrotation Zrotation
						JOINT RightToe_End
						{
							OFFSET -4.510700 0.695400 19.974600
							CHANNELS 3 Xrotation Yrotation Zrotation
							End Site
							{
								OFFSET 0 0 0
							}
						}
					}
				}
			}
		}
	}
	JOINT Spine_virtual
	{
		OFFSET 0.000000 0.000000 0.000000
		CHANNELS 3 Xrotation Yrotation Zrotation
		JOINT Spine
		{
			OFFSET -0.002400 12.777504 0.315300
			CHANNELS 3 Xrotation Yrotation Zrotation
			JOINT Spine1
			{
				OFFSET -0.002067 5.816869 0.032633
				CHANNELS 3 Xrotation Yrotation Zrotation
				JOINT Spine1_split
				{
					OFFSET -0.002067 5.816869 0.032633
					CHANNELS 3 Xrotation Yrotation Zrotation
					JOINT Spine2
					{
						OFFSET -0.002067 5.816869 0.032633
						CHANNELS 3 Xrotation Yrotation Zrotation
						JOINT Neck_virtual
						{
							OFFSET 0.000000 0.000000 0.000000
							CHANNELS 3 Xrotation Yrotation Zrotation
							JOINT Neck
							{
								OFFSET -0.003700 21.199493 -0.826900
								CHANNELS 3 Xrotation Yrotation Zrotation
								JOINT Head
								{
									OFFSET 0.000000 20.442200 4.834800
									CHANNELS 3 Xrotation Yrotation Zrotation
									JOINT HeadTop_End
									{
										OFFSET 0.000000 34.668396 4.968400
										CHANNELS 3 Xrotation Yrotation Zrotation
										End Site
										{
											OFFSET 0 0 0
										}
									}
								}
							}
						}
						JOINT LeftShoulder_virtual
						{
							OFFSET 0.000000 0.000000 0.000000
							CHANNELS 3 Xrotation Yrotation Zrotation
							JOINT LeftShoulder
							{
								OFFSET 3.288150 8.794197 -1.372250
								CHANNELS 3 Xrotation Yrotation Zrotation
								JOINT LeftShoulder_split
								{
									OFFSET 3.288150 8.794197 -1.372250
									CHANNELS 3 Xrotation Yrotation Zrotation
									JOINT LeftArm
									{
										OFFSET 11.953299 -2.279007 -0.146200
										CHANNELS 3 Xrotation Yrotation Zrotation
										JOINT LeftForeArm
										{
											OFFSET 18.448900 0.000000 0.000000
											CHANNELS 3 Xrotation Yrotation Zrotation
											JOINT LeftHand
											{
												OFFSET 29.527798 0.000000 0.000000
												CHANNELS 3 Xrotation Yrotation Zrotation
												End Site
												{
													OFFSET 0 0 0
												}
											}
										}
									}
								}
							}
						}
						JOINT RightShoulder_virtual
						{
							OFFSET 0.000000 0.000000 0.000000
							CHANNELS 3 Xrotation Yrotation Zrotation
							JOINT RightShoulder
							{
								OFFSET -3.249400 8.794197 -1.372250
								CHANNELS 3 Xrotation Yrotation Zrotation
								JOINT RightShoulder_split
								{
									OFFSET -3.249400 8.794197 -1.372250
									CHANNELS 3 Xrotation Yrotation Zrotation
									JOINT RightArm
									{
										OFFSET -11.953299 -2.279007 -0.146200
										CHANNELS 3 Xrotation Yrotation Zrotation
										JOINT RightForeArm
										{
											OFFSET -18.448900 0.000000 0.000000
											CHANNELS 3 Xrotation Yrotation Zrotation
											JOINT RightHand
											{
												OFFSET -29.527802 0.000000 0.000000
												CHANNELS 3 Xrotation Yrotation Zrotation
												End Site
												{
													OFFSET 0 0 0
												}
											}
										}
									}
								}
							}
						}
					}
				}
			}
		}
	}
}
MOTION
Frames: 4
Frame Time: 0.03333333
-3.613192 65.406929 10.629131 0.000000 0.000000 0.000000 34.322466 -57.498889 30.347555 -74.159312 -6.951466 30.508563 88.735092 -16.679669 -2.551402 -26.319244 -0.242089 -6.573872 -4.504429 -1.468146 1.125104 0.000000 0.000000 0.000000 38.223897 -62.247120 35.383276 -74.140938 -3.622527 -38.928667 87.035072 13.066926 0.828309 -39.504516 -3.719374 9.787501 -2.310590 1.375265 1.511245 0.000000 0.000000 0.000000 38.003203 -54.964923 31.360291 7.255269 -1.341459 -1.393732 4.214747 -2.936814 -2.705675 1.151158 0.488122 0.725960 0.000000 0.000000 0.000000 3.538713 -3.411789 -2.078834 -3.990038 14.328347 -6.869015 -34.638403 34.277123 5.007318 0.000000 0.000000 0.000000 3.682108 -3.430720 -2.409189 5.061269 -9.502036 -6.383275 -4.436191 -3.544319 0.898452 -59.421765 3.119889 -22.769137 20.018219 -21.902369 16.526464 0.000000 0.000000 0.000000 3.895003 -3.183727 -2.277060 5.850082 8.201208 13.423399 4.329325 4.289002 -1.085305 -10.144215 -3.790050 53.939230 -16.900077 40.295524 8.362697 0.000000 0.000000 0.000000 
-3.378666 61.794922 10.437279 0.000000 0.000000 0.000000 36.303111 -56.770470 31.710021 -78.056017 -11.375762 31.765717 93.395952 -19.263543 -3.919245 -27.686435 -0.847982 -6.130464 -4.958379 -1.540385 0.817828 0.000000 0.000000 0.000000 40.177352 -61.290764 36.642715 -79.499119 -1.395831 -42.313459 91.747773 15.147503 1.526200 -40.375912 -2.427606 8.509851 -2.931157 1.301168 1.969874 0.000000 0.000000 0.000000 39.850787 -54.397566 32.525016 6.732004 -1.333056 -1.189997 4.418089 -2.738545 -2.641732 1.186712 0.337825 0.719364 0.000000 0.000000 0.000000 3.788513 -3.236767 -2.029143 -2.738997 14.877392 -7.931756 -35.066912 33.038868 4.321017 0.000000 0.000000 0.000000 3.902608 -3.251724 -2.392332 5.418578 -9.799333 -6.309301 -4.156773 -3.457911 1.123221 -60.736023 1.789615 -22.911088 21.063475 -21.570992 16.541395 0.000000 0.000000 0.000000 4.136364 -2.981070 -2.209260 6.198466 8.379379 13.732783 4.404735 4.252997 -1.210046 -9.775648 -2.143831 52.224429 -17.518346 41.991689 9.039515 0.000000 0.000000 0.000000 
-3.140861 58.218445 10.311005 0.000000 0.000000 0.000000 37.754895 -56.082919 32.568610 -81.645219 -16.064269 33.139589 97.582066 -22.097260 -5.113529 -28.483082 -1.509373 -5.870844 -5.787502 -1.533284 0.509220 0.000000 0.000000 0.000000 41.527741 -60.344612 37.279927 -84.788063 1.737311 -45.694713 96.293824 17.117602 2.509813 -40.247849 -1.484450 7.267843 -3.665588 1.121848 2.284214 0.000000 0.000000 0.000000 41.056277 -53.942177 33.189228 6.328896 -1.292812 -1.031293 4.615215 -2.496597 -2.574194 1.111531 0.160314 0.797861 0.000000 0.000000 0.000000 4.053060 -3.001135 -1.980756 -1.290965 15.389560 -8.971534 -34.979134 32.043385 3.492430 0.000000 0.000000 0.000000 4.148737 -3.017629 -2.369781 5.788993 -9.878398 -6.263847 -3.881612 -3.367437 1.236571 -61.826387 0.657734 -23.242510 22.221600 -21.273384 16.431541 0.000000 0.000000 0.000000 4.389049 -2.730845 -2.150419 6.572610 8.490346 14.061739 4.494588 4.199535 -1.244368 -9.173368 -0.667606 50.241458 -17.810958 43.020008 9.559094 0.000000 0.000000 0.000000 
-2.915199 54.848335 10.173592 0.000000 0.000000 0.000000 38.695050 -55.382302 32.965006 -84.900078 -20.724216 34.680477 101.104599 -24.952189 -6.170239 -28.567200 -2.188392 -5.733552 -7.032369 -1.469046 0.262008 0.000000 0.000000 0.000000 42.255447 -59.408808 37.376301 -89.849568 5.714415 -49.015995 100.621541 19.056279 3.632898 -38.793849 -0.922427 6.340535 -4.896975 0.867139 2.514691 0.000000 0.000000 0.000000 41.729188 -53.528722 33.450865 6.008540 -1.218331 -0.926080 4.807107 -2.252340 -2.539107 0.877488 -0.167228 0.898262 0.000000 0.000000 0.000000 4.314082 -2.738953 -1.959508 0.335136 15.903185 -9.967092 -34.533430 31.224111 2.671644 0.000000 0.000000 0.000000 4.411344 -2.766297 -2.365343 6.174209 -9.713582 -6.238761 -3.598518 -3.277772 1.179846 -62.725944 -0.294205 -23.688057 23.498608 -20.927872 16.232144 0.000000 0.000000 0.000000 4.633804 -2.477028 -2.128361 6.976217 8.590937 14.519877 4.643811 4.153730 -1.173365 -8.526552 0.415553 48.133504 -17.731586 43.565279 9.895105 0.000000 0.000000 0.000000 
